<?xml version="1.0" encoding="UTF-8"?>
<svg version="1.1" xmlns="http://www.w3.org/2000/svg" width="192" height="192">
<path d="M0 0 C1.44325154 2.12208151 2.76131086 4.23169643 4.0625 6.4375 C13.57831172 21.7446133 26.6282414 31.26435782 44.171875 35.375 C50.38850148 36.38995943 56.75425993 37.05518093 63 36 C64.37718183 34.71200708 65.71129352 33.37651414 67 32 C69.875 30.91796875 69.875 30.91796875 73 30.1875 C74.03125 29.93355469 75.0625 29.67960937 76.125 29.41796875 C78.92336548 29.01114116 80.42414954 28.89686404 83 30 C86.47849667 33.24049427 87.93726208 36.20950226 88.3125 40.9375 C88.1578125 42.4534375 88.1578125 42.4534375 88 44 C82.375 47 82.375 47 79 47 C78.938125 47.61875 78.87625 48.2375 78.8125 48.875 C78 51 78 51 75.8125 52.25 C72.75967331 53.06408712 70.14582965 53.14631766 67 53 C67 52.34 67 51.68 67 51 C65.59814453 51.58007812 65.59814453 51.58007812 64.16796875 52.171875 C36.35433576 63.32818838 4.92285262 66.44456784 -23.24609375 54.73046875 C-36.19386593 48.96962429 -48.85214602 39.88543518 -58 29 C-58 28.34 -58 27.68 -58 27 C-45.36091116 20.31867898 -32.66545224 13.7426665 -19.91088867 7.28442383 C-18.46981632 6.55289767 -17.03051867 5.81786494 -15.59301758 5.0793457 C-13.56152949 4.03674501 -11.52395627 3.00712639 -9.484375 1.98046875 C-8.87281555 1.66337448 -8.2612561 1.34628021 -7.63116455 1.01957703 C-3.34245398 -1.11415133 -3.34245398 -1.11415133 0 0 Z " fill="#38A8BE" transform="translate(104,111)"/>
<path d="M0 0 C0.08564209 1.09352783 0.17128418 2.18705566 0.25952148 3.3137207 C0.58126319 7.41956904 0.9039073 11.52534607 1.22680664 15.63110352 C1.36571991 17.39898821 1.50439724 19.16689146 1.64282227 20.93481445 C2.74130454 34.97420092 2.74130454 34.97420092 4 49 C0.07860316 51.46593197 -3.98346676 53.46234228 -8.1953125 55.37109375 C-8.89268021 55.68990005 -9.59004791 56.00870636 -10.30854797 56.33717346 C-12.57919638 57.37394944 -14.85190992 58.40608936 -17.125 59.4375 C-18.69540517 60.15166789 -20.26579895 60.86586081 -21.83618164 61.58007812 C-25.79809545 63.38042857 -29.76232746 65.17562187 -33.72698975 66.96990967 C-35.89291358 67.95147022 -38.05735403 68.93621305 -40.22119141 69.92236328 C-43.95584378 71.6241206 -47.69605975 73.31321718 -51.4375 75 C-52.55463379 75.50974365 -53.67176758 76.0194873 -54.82275391 76.54467773 C-55.84933105 77.00430908 -56.8759082 77.46394043 -57.93359375 77.9375 C-58.82103271 78.33839844 -59.70847168 78.73929687 -60.62280273 79.15234375 C-63 80 -63 80 -67 80 C-76 61.5942623 -76 61.5942623 -76 54 C-76.75667969 53.94070312 -77.51335937 53.88140625 -78.29296875 53.8203125 C-81 53 -81 53 -82.80078125 50.7421875 C-88.2424015 40.42138837 -88.2424015 40.42138837 -87 35 C-83.83474451 32.80546652 -80.47402834 31.23452044 -76.94799805 29.70678711 C-75.47311165 29.06482643 -75.47311165 29.06482643 -73.96842957 28.40989685 C-72.910215 27.95365433 -71.85200043 27.4974118 -70.76171875 27.02734375 C-69.64932327 26.5447963 -68.5369278 26.06224884 -67.39082336 25.56507874 C-65.02697182 24.54051039 -62.66238367 23.51764007 -60.29711914 22.49633789 C-56.76473716 20.97085538 -53.23471115 19.4400336 -49.70507812 17.90820312 C-43.95135127 15.41385901 -38.18964934 12.93861749 -32.42425537 10.47137451 C-28.97492048 8.98922353 -25.53360328 7.48942434 -22.09228516 5.98876953 C-19.92251717 5.05557852 -17.75244591 4.12309224 -15.58203125 3.19140625 C-14.08829231 2.53252663 -14.08829231 2.53252663 -12.56437683 1.8603363 C-11.64054703 1.46758011 -10.71671722 1.07482391 -9.76489258 0.67016602 C-8.96183182 0.32196304 -8.15877106 -0.02623993 -7.33137512 -0.38499451 C-4.5548152 -1.1174376 -2.74170109 -0.75245137 0 0 Z " fill="#38A8BE" transform="translate(87,20)"/>
<path d="M0 0 C1.00620969 3.60246263 2.00389587 7.20723123 3 10.8125 C3.28617187 11.83666016 3.57234375 12.86082031 3.8671875 13.91601562 C4.27324219 15.39038086 4.27324219 15.39038086 4.6875 16.89453125 C4.93886719 17.80050049 5.19023438 18.70646973 5.44921875 19.63989258 C6 22 6 22 6 25 C5.33014572 25.33381683 4.66029144 25.66763367 3.97013855 26.01156616 C-2.34315614 29.158194 -8.65548615 32.30674677 -14.96674061 35.45746422 C-18.2114286 37.07719919 -21.45648439 38.69618803 -24.70239258 40.31347656 C-27.83498635 41.87433988 -30.96659832 43.43715667 -34.0975399 45.00133133 C-35.87333465 45.88785559 -37.65013971 46.77235514 -39.42695618 47.65682983 C-40.50785019 48.19723907 -41.5887442 48.73764832 -42.70239258 49.29443359 C-43.65503494 49.76964447 -44.60767731 50.24485535 -45.58918762 50.73446655 C-48.15448773 52.02758354 -48.15448773 52.02758354 -51 54 C-51.99 54 -52.98 54 -54 54 C-55.78982763 51.67830372 -57.37285098 49.40420522 -58.9375 46.9375 C-59.36740234 46.28072266 -59.79730469 45.62394531 -60.24023438 44.94726562 C-61.51807675 42.97911689 -62.76606584 40.99593915 -64 39 C-64.39848145 38.35562988 -64.79696289 37.71125977 -65.20751953 37.04736328 C-68 32.37355515 -68 32.37355515 -68 29 C-66.88367188 28.51233154 -65.76734375 28.02466309 -64.6171875 27.5222168 C-59.41029036 25.24664356 -54.20500182 22.96740453 -49 20.6875 C-48.06694031 20.27904846 -47.13388062 19.87059692 -46.17254639 19.44976807 C-33.95774945 14.099812 -21.7716554 8.70629171 -9.71875 2.9987793 C-8.42324219 2.39223511 -8.42324219 2.39223511 -7.1015625 1.7734375 C-6.37275879 1.42716309 -5.64395508 1.08088867 -4.89306641 0.72412109 C-3 0 -3 0 0 0 Z " fill="#38A8BE" transform="translate(93,78)"/>
</svg>
