<?xml version="1.0" encoding="utf-8"?>
<svg version="1.0" width="1024.000000pt" height="1024.000000pt" viewBox="208.105 211.721 608.14 596.994" preserveAspectRatio="xMidYMid meet" xmlns="http://www.w3.org/2000/svg">
  <g transform="translate(0.000000,1024.000000) scale(0.100000,-0.100000)" fill="#cdcdcd" stroke="none">
    <path d="M4957 8100 c-383 -32 -725 -128 -1094 -305 -628 -302 -1068 -737 -1382 -1362 -126 -253 -213 -535 -267 -871 -21 -134 -30 -535 -15 -699 38 -403 174 -820 390 -1198 49 -85 148 -239 177 -274 2 -2 22 12 46 31 24 19 88 67 143 106 55 40 110 80 123 90 l23 18 -85 127 c-271 402 -408 865 -409 1382 0 415 77 749 258 1120 126 256 284 473 496 681 445 434 1008 686 1643 735 208 16 450 -1 670 -46 253 -52 574 -177 755 -292 29 -19 57 -31 62 -26 4 4 45 87 89 183 61 128 80 178 73 190 -16 25 -276 155 -438 218 -229 91 -467 151 -715 182 -121 15 -416 20 -543 10z"/>
    <path d="M7552 7920 c-160 -58 -260 -209 -250 -376 9 -135 97 -264 221 -320 51 -23 76 -28 142 -28 134 -1 237 49 315 153 108 144 98 336 -25 469 -78 84 -145 115 -260 119 -70 2 -102 -2 -143 -17z m188 -255 c35 -18 60 -62 60 -105 0 -132 -195 -163 -237 -37 -35 105 76 194 177 142z"/>
    <path d="M2192 7439 c-109 -54 -131 -195 -45 -289 62 -69 162 -78 240 -21 55 40 76 89 71 161 -10 133 -145 209 -266 149z"/>
    <path d="M5045 7094 c-370 -54 -641 -146 -899 -308 -468 -294 -766 -721 -883 -1265 -25 -117 -27 -143 -27 -371 -1 -163 3 -270 12 -320 77 -431 265 -792 567 -1095 314 -314 774 -513 1251 -543 197 -12 541 7 556 32 4 6 8 516 8 1134 l0 1122 710 0 710 0 -2 348 -3 347 -1062 3 -1063 2 0 -1130 c0 -789 -3 -1130 -11 -1130 -23 0 -198 64 -263 97 -363 182 -600 495 -678 893 -20 107 -15 367 10 481 106 487 497 873 988 979 83 18 145 23 377 27 l277 6 0 247 c0 136 3 287 6 337 l7 90 -29 7 c-33 8 -514 16 -559 10z"/>
    <path d="M7625 6682 c-27 -21 -97 -71 -155 -112 -58 -41 -107 -75 -109 -77 -2 -2 30 -69 72 -150 151 -295 233 -550 279 -868 17 -119 17 -531 -1 -655 -57 -416 -201 -788 -442 -1146 -238 -353 -624 -675 -1037 -864 -713 -326 -1524 -302 -2230 65 -68 36 -161 89 -208 120 -47 30 -86 55 -87 55 -1 0 -45 -83 -97 -185 l-95 -185 25 -20 c49 -37 262 -153 390 -212 329 -150 650 -237 983 -269 177 -16 524 -7 692 19 522 81 1034 311 1478 665 337 268 646 689 832 1132 242 578 297 1231 155 1825 -53 218 -137 454 -227 635 -64 128 -145 265 -157 265 -6 0 -33 -17 -61 -38z"/>
    <path d="M2703 2879 c-59 -17 -123 -106 -123 -170 0 -64 58 -151 117 -175 89 -38 209 11 242 99 24 63 10 150 -32 196 -48 52 -129 72 -204 50z"/>
    <path d="M7777 2839 c-57 -30 -90 -88 -90 -157 0 -92 50 -160 134 -182 69 -19 159 14 200 72 35 49 39 143 8 198 -47 84 -163 116 -252 69z"/>
  </g>
</svg>